<svg xmlns="http://www.w3.org/2000/svg" width="13" height="12" viewBox="0 0 13 12" fill="none">
  <path d="M12.6316 4.57263L8.09053 4.18105L6.31579 0L4.54105 4.18737L0 4.57263L3.44842 7.56L2.41263 12L6.31579 9.64421L10.2189 12L9.18947 7.56L12.6316 4.57263ZM6.31579 8.46316L3.94105 9.89684L4.57263 7.19368L2.47579 5.37474L5.24211 5.13474L6.31579 2.58947L7.39579 5.14105L10.1621 5.38105L8.06526 7.2L8.69684 9.90316L6.31579 8.46316Z" fill="#232323"/>
  <path d="M6.31579 9.64421L10.2189 12L9.18316 7.56L12.6316 4.57263L8.09053 4.18737L6.31579 0L4.54105 4.18737L0 4.57263L3.44842 7.56L2.41263 12L6.31579 9.64421Z" fill="#232323"/>
</svg>